<svg xmlns="http://www.w3.org/2000/svg" viewBox="0 0 80 60" width="80" height="60">
  <!-- Shadow -->
  <ellipse cx="40" cy="56" rx="35" ry="4" fill="#000" opacity="0.2"/>

  <!-- Tub feet -->
  <ellipse cx="12" cy="54" rx="4" ry="3" fill="#C0C0C0"/>
  <ellipse cx="68" cy="54" rx="4" ry="3" fill="#C0C0C0"/>

  <!-- Tub body (outer) -->
  <path d="M 5 25 Q 5 55 40 55 Q 75 55 75 25 L 75 20 Q 75 15 70 15 L 10 15 Q 5 15 5 20 Z" fill="#E8E8E8"/>

  <!-- Tub rim -->
  <ellipse cx="40" cy="15" rx="35" ry="6" fill="#F5F5F5"/>
  <ellipse cx="40" cy="15" rx="32" ry="4" fill="#E0E0E0"/>

  <!-- Water -->
  <ellipse cx="40" cy="18" rx="30" ry="8" fill="#64B5F6"/>
  <ellipse cx="40" cy="16" rx="26" ry="6" fill="#90CAF9" opacity="0.6"/>

  <!-- Bubbles -->
  <circle cx="25" cy="14" r="4" fill="#fff" opacity="0.8"/>
  <circle cx="30" cy="11" r="3" fill="#fff" opacity="0.7"/>
  <circle cx="22" cy="10" r="2" fill="#fff" opacity="0.6"/>

  <circle cx="50" cy="12" r="5" fill="#fff" opacity="0.8"/>
  <circle cx="56" cy="14" r="3" fill="#fff" opacity="0.7"/>
  <circle cx="58" cy="10" r="2" fill="#fff" opacity="0.6"/>

  <circle cx="38" cy="10" r="3" fill="#fff" opacity="0.7"/>
  <circle cx="44" cy="8" r="2" fill="#fff" opacity="0.6"/>

  <!-- Faucet -->
  <rect x="36" y="2" width="8" height="8" rx="2" fill="#C0C0C0"/>
  <ellipse cx="40" cy="10" rx="3" ry="2" fill="#A0A0A0"/>

  <!-- Water shine -->
  <ellipse cx="30" cy="20" rx="8" ry="3" fill="#fff" opacity="0.3"/>
</svg>
