<svg xmlns="http://www.w3.org/2000/svg" viewBox="0 0 80 100" width="80" height="100">
  <!-- Shadow -->
  <ellipse cx="40" cy="96" rx="25" ry="4" fill="#000" opacity="0.2"/>

  <!-- Trunk -->
  <rect x="32" y="60" width="16" height="36" fill="#5C4033" rx="2"/>
  <rect x="35" y="65" width="4" height="28" fill="#4A3428" opacity="0.5"/>

  <!-- Foliage layers (back) -->
  <ellipse cx="20" cy="45" rx="18" ry="20" fill="#1B5E20"/>
  <ellipse cx="60" cy="45" rx="18" ry="20" fill="#1B5E20"/>

  <!-- Foliage layers (middle) -->
  <ellipse cx="30" cy="35" rx="20" ry="22" fill="#2E7D32"/>
  <ellipse cx="50" cy="35" rx="20" ry="22" fill="#2E7D32"/>

  <!-- Foliage (front/top) -->
  <ellipse cx="40" cy="28" rx="25" ry="26" fill="#388E3C"/>
  <ellipse cx="40" cy="22" rx="18" ry="18" fill="#43A047" opacity="0.7"/>

  <!-- Apples -->
  <circle cx="25" cy="35" r="5" fill="#E53935"/>
  <circle cx="24" cy="33" r="2" fill="#EF5350" opacity="0.6"/>

  <circle cx="52" cy="28" r="5" fill="#E53935"/>
  <circle cx="51" cy="26" r="2" fill="#EF5350" opacity="0.6"/>

  <circle cx="38" cy="18" r="4" fill="#E53935"/>
  <circle cx="37" cy="16" r="1.5" fill="#EF5350" opacity="0.6"/>

  <circle cx="55" cy="45" r="5" fill="#E53935"/>
  <circle cx="54" cy="43" r="2" fill="#EF5350" opacity="0.6"/>

  <!-- Apple stems -->
  <line x1="25" y1="30" x2="25" y2="28" stroke="#5C4033" stroke-width="1"/>
  <line x1="52" y1="23" x2="52" y2="21" stroke="#5C4033" stroke-width="1"/>
  <line x1="38" y1="14" x2="38" y2="12" stroke="#5C4033" stroke-width="1"/>
  <line x1="55" y1="40" x2="55" y2="38" stroke="#5C4033" stroke-width="1"/>
</svg>
